mastitorrents.com
 
http://mastitorrents.com/forums/index.php

Starring: Karthi,Kajal Aggarwal,Jayaprakash,Soori
Directed: Suseenthiran
Produced: K. E. Gnanavelraja, S. R. Prakash Babu,S. R. Prabhu
Written: Suseenthiran, Bhaskar Sakthi
Music :Yuvan Shankar Raja

Format                           : AVI 
Format/Info                      : Audio Video Interleave 
Format profile                   : OpenDML 
File size                        : 687 MiB 
Duration                         : 2h 6mn 
Overall bit rate                 : 761 Kbps 
Writing application              : AVI-Mux GUI 1.17.8.3, Feb 16 201019:42:50  Video 
ID                               : 0 
Format                           : MPEG-4 Visual 
Format profile                   : Advanced Simple@L5 
Format settings, BVOP            : Yes 
Format settings, QPel            : Yes 
Format settings, GMC             : No warppoints 
Format settings, Matrix          : Default (H.263) 
Codec ID                         : XVID 
Codec ID/Hint                    : XviD 
Duration                         : 2h 6mn 
Bit rate                         : 648 Kbps 
Width                            : 608 pixels 
Height                           : 272 pixels 
Display aspect ratio             : 2.25:1 
Frame rate                       : 29.970 fps 
Color space                      : YUV 
Chroma subsampling               : 4:2:0 
Bit depth                        : 8 bits 
Scan type                        : Progressive 
Bits/(Pixel*Frame)               : 0.131 
Stream size                      : 585 MiB (85%) 
Writing library                  : XviD 1.2.1 (UTC 2008-12-04)  Audio ID                               : 1 
Format                           : MPEG Audio 
Format version                   : Version 1 
Format profile                   : Layer 3 
Mode                             : Joint stereo 
Mode extension                   : MS Stereo 
Codec ID                         : 55 
Codec ID/Hint                    : MP3 
Duration                         : 2h 6mn 
Bit rate mode                    : Variable 
Bit rate                         : 104 Kbps 
Nominal bit rate                 : 112 Kbps 
Channel(s)                       : 2 channels 
Sampling rate                    : 44.1 KHz 
Stream size                      : 93.6 MiB (14%) 
Alignment                        : Aligned on interleaves